# xmcd
#
# Track frame offsets:
#	150
#	19005
#	40541
#	71390
#	95750
#	119174
#	144668
#	165634
#	196537
#	223313
#	247424
#	272219
#	294725
#	319250
#	341301
#
# Disc length: 4778 seconds
#
# Revision: 0
# Processed by: cddbd v1.5.2PL0 Copyright (c) Steve Scherf et al.
# Submitted via: audiograbber 1.82.01
#
DISCID=ed12a80f
DTITLE=V. Artist - All Times
DYEAR=2002
DGENRE=Blues
TTITLE0=Gary Moore - Still Got The Blues
TTITLE1=Santana - Put Your Lights On
TTITLE2=Chris Rea - On The Beach
TTITLE3=Eric Clapton - My Father's Eyes
TTITLE4=Tony Joe White - Good In Blues
TTITLE5=Toto - Baby He's Your Man
TTITLE6=Dana Gilespie - Where Blues Begins
TTITLE7=George Michael - Jesus To A Child
TTITLE8=Blues company - Silent Night
TTITLE9=Sean Webb's Chiken Shack - Don't You Worry About A Thing
TTITLE10=Jan Akkerman - Shame On You
TTITLE11=John Campbell - Wild Streak
TTITLE12=JJ.Cale - Cloudy Day
TTITLE13=Lucky Peterson - Who Been Talking
TTITLE14=John Mayall and The Bluesbreakears - Dead City
EXTD=
EXTT0=
EXTT1=
EXTT2=
EXTT3=
EXTT4=
EXTT5=
EXTT6=
EXTT7=
EXTT8=
EXTT9=
EXTT10=
EXTT11=
EXTT12=
EXTT13=
EXTT14=
PLAYORDER=
